<?xml version="1.0" encoding="utf-8"?>
<!-- Generator: Adobe Illustrator 28.0.0, SVG Export Plug-In . SVG Version: 6.00 Build 0)  -->
<svg fill="#ffffff" version="1.1" id="Calque_1" xmlns="http://www.w3.org/2000/svg" xmlns:xlink="http://www.w3.org/1999/xlink" x="0px" y="0px"
	 viewBox="0 0 1036 467.1" enable-background="new 0 0 1036 467.1" xml:space="preserve">
<g>
	<path d="M280.6,399.5c-2.3-1.7-4.8-2.6-7.3-2.8v-0.4c2.5-0.6,4.6-1.8,6.4-3.4c1.8-1.6,3.2-3.6,4.3-6.1c1-2.4,1.5-5.2,1.5-8.4
		c0-4-0.8-7.6-2.5-10.6c-1.7-3-4.2-5.4-7.4-7.1c-3.3-1.7-7.3-2.5-12-2.5H238v78.3h27.6c5,0,9.3-0.9,12.7-2.6c3.4-1.7,6-4.1,7.7-7.2
		c1.7-3.1,2.6-6.6,2.6-10.6c0-3.8-0.7-7.1-2.2-9.9C284.8,403.4,282.9,401.1,280.6,399.5z M242.9,362.8h20.5c5.5,0,9.8,1.4,12.8,4.2
		c3,2.8,4.5,6.6,4.5,11.5c0,3-0.6,5.7-1.8,8.1c-1.2,2.4-3,4.4-5.3,5.8c-2.3,1.4-5.1,2.2-8.5,2.2h-22.1V362.8z M279,427.5
		c-3.1,2.9-7.7,4.4-13.5,4.4h-22.5v-33h22.7c3.6,0,6.7,0.8,9.4,2.3c2.7,1.5,4.8,3.6,6.3,6.2c1.5,2.6,2.3,5.5,2.3,8.8
		C283.7,420.8,282.1,424.6,279,427.5z"/>
	<polygon points="330.7,399.5 367.1,399.5 367.1,394.9 330.7,394.9 330.7,362.8 369.5,362.8 369.5,358.2 325.7,358.2 325.7,436.5 
		370.4,436.5 370.4,432 330.7,432 	"/>
	<polygon points="412.5,358.2 407.5,358.2 407.5,436.5 450.7,436.5 450.7,432 412.5,432 	"/>
	<path d="M514.2,404.4H539c-0.1,5.7-1.1,10.7-3.2,14.9c-2.1,4.4-5.2,7.7-9,10.1c-3.9,2.4-8.5,3.5-13.8,3.5c-5.7,0-10.7-1.5-15-4.4
		c-4.3-2.9-7.6-7-10-12.4c-2.4-5.3-3.6-11.6-3.6-18.7c0-7.3,1.2-13.6,3.6-18.9c2.4-5.3,5.7-9.4,10-12.3c4.3-2.9,9.2-4.3,14.7-4.3
		c3.6,0,6.8,0.6,9.7,1.8c2.9,1.2,5.4,2.8,7.6,4.8c2.2,2,3.9,4.2,5.3,6.7c1.4,2.5,2.4,5,2.9,7.6h5.1c-0.6-3.1-1.6-6.2-3.2-9.2
		c-1.6-3-3.7-5.8-6.3-8.3c-2.6-2.5-5.7-4.4-9.2-5.9c-3.5-1.5-7.5-2.2-11.9-2.2c-6.6,0-12.3,1.7-17.3,5c-5,3.3-8.9,8-11.7,14
		c-2.8,6-4.2,13.1-4.2,21.2c0,8.1,1.4,15.1,4.2,21.1c2.8,6,6.7,10.7,11.7,14c5,3.3,10.9,5,17.6,5c6.2,0,11.6-1.4,16.2-4.1
		c4.6-2.8,8.2-6.6,10.8-11.6c2.6-5,3.9-10.9,3.9-17.6v-4.4h-29.7V404.4z"/>
	<rect x="581.6" y="358.2" width="4.9" height="78.3"/>
	<path d="M679.3,409.7c0,4.5-1,8.5-3.1,12c-2.1,3.5-4.9,6.3-8.5,8.3c-3.6,2-7.8,3-12.5,3c-4.7,0-8.9-1-12.5-3
		c-3.6-2-6.5-4.8-8.5-8.3c-2.1-3.5-3.1-7.5-3.1-12v-51.5h-4.9V410c0,5.3,1.2,10.1,3.7,14.3c2.5,4.2,5.9,7.5,10.3,9.9
		c4.4,2.4,9.4,3.6,15,3.6c5.6,0,10.6-1.2,15-3.6c4.4-2.4,7.8-5.7,10.3-9.9c2.5-4.2,3.7-8.9,3.7-14.3v-51.8h-4.9V409.7z"/>
	<path d="M766.7,416.2c-0.5,1.2-1,2.5-1.6,3.9c-0.5,1.4-1.1,2.9-1.7,4.4c-0.6,1.5-1.1,3-1.7,4.5c-0.3,0.7-0.5,1.4-0.8,2.1
		c-0.3-0.7-0.5-1.4-0.8-2.2c-0.5-1.5-1.1-3-1.6-4.5c-0.5-1.5-1.1-3-1.6-4.3c-0.5-1.4-1.1-2.7-1.6-3.9l-24.5-58.1H724v78.3h4.8v-54.7
		c0-1.5,0-3.1,0-4.8c0-1.7,0-3.4-0.1-5.2c0-1.8,0-3.5-0.1-5.2c0-0.9,0-1.8,0-2.7c0.4,1.1,0.8,2.1,1.2,3.2c0.7,1.8,1.4,3.6,2,5.3
		c0.7,1.7,1.3,3.4,1.9,4.9c0.6,1.6,1.2,3,1.8,4.4l23.2,54.7h4.5l23.1-54.7c0.6-1.4,1.2-2.8,1.8-4.4c0.6-1.6,1.3-3.2,2-5
		c0.7-1.7,1.3-3.5,2-5.3c0.4-1.1,0.8-2.2,1.2-3.2c0,1,0,1.9,0,3c0,1.8,0,3.5-0.1,5.2s0,3.4-0.1,5.1c0,1.6,0,3.2,0,4.7v54.7h4.9
		v-78.3h-7L766.7,416.2z"/>
	<path d="M180.6,113.7h-52.4L65.1,296.9h44.8l12.9-44.6h61.9l12.9,44.6h46.2L180.6,113.7z M131.8,221.2l5.1-17.7
		c2.7-9.4,5.4-19.2,8.2-29.3c2.8-10.2,5.4-20.1,8-29.8h1.1c2.7,9.5,5.4,19.4,8.1,29.7c2.7,10.3,5.5,20.1,8.4,29.5l5.1,17.7H131.8z"
		/>
	<path d="M371.9,200.9v-1c5-1.9,9.2-5,12.9-9c3.6-4.1,6.4-8.7,8.4-14c2-5.3,3-10.7,3-16.2c0-11.5-3-20.5-8.9-26.9
		c-5.9-6.4-14-11-24.2-13.8c-10.2-2.8-21.6-4.1-34.3-4.1h-62.4v181.1h67.4c13.4,0,25.5-1.9,36.3-5.7c10.8-3.8,19.4-9.7,25.8-17.5
		c6.4-7.9,9.5-17.9,9.5-30.1c0-12-3.2-21.6-9.7-28.6C389.3,207.9,381.3,203.2,371.9,200.9z M306.8,146.6h20.1
		c10.1,0,17.6,1.5,22.5,4.6c5,3.1,7.4,8.2,7.4,15.4c0,6.8-2.4,12.2-7.2,16.2c-4.8,4-12.5,6-23,6h-19.8V146.6z M356.9,260
		c-6,4.1-14.8,6.2-26.4,6.2h-23.8V218h23.8c11.7,0,20.6,1.8,26.5,5.4c5.9,3.6,8.9,9.5,8.9,17.8C366,249.6,363,255.9,356.9,260z"/>
	<path d="M760.3,201.2c-3,9.9-5.6,19.6-7.8,29c-2.3,9.4-4.9,19.2-7.8,29.2h-1.3c-3-10.1-5.6-19.8-7.8-29.2c-2.3-9.4-4.9-19.1-8.1-29
		l-23.7-85.3h-44.8l58.5,181.1h50.7l58.5-181.1h-43.2L760.3,201.2z"/>
	<polygon points="888,263.6 888,220.2 951.5,220.2 951.5,186.8 888,186.8 888,149 956.3,149 956.3,115.9 850.9,115.9 850.9,296.9 
		958.8,296.9 958.8,263.6 	"/>
	<path d="M529.5,150.6c-31.1,0-56.3,25.3-56.3,56.3s25.3,56.3,56.3,56.3s56.3-25.3,56.3-56.3S560.5,150.6,529.5,150.6z M529.5,257.3
		c-27.8,0-50.3-22.6-50.3-50.3s22.6-50.3,50.3-50.3c27.8,0,50.3,22.6,50.3,50.3S557.2,257.3,529.5,257.3z"/>
	<path d="M588.1,133.8L671,65.6h275.9v-35H658.7l-104.6,85.9c-7.9-2.1-16.1-3.3-24.6-3.3c-8.5,0-16.8,1.2-24.6,3.3L400.3,30.6H112
		v35h275.9l82.9,68.3c-21.4,17.2-35.2,43.6-35.2,73.1c0,51.7,42.1,93.8,93.8,93.8c51.7,0,93.8-42.1,93.8-93.8
		C623.2,177.4,609.5,151,588.1,133.8z M660.8,36.6h280.1v23h-272l-85.7,70.6c-6.8-4.8-14.3-8.6-22.2-11.5L660.8,36.6z M390.1,59.6
		H118v-23h280.1l99.9,82.1c-7.9,2.8-15.4,6.7-22.2,11.5L390.1,59.6z M529.5,294.8c-48.4,0-87.8-39.4-87.8-87.8
		c0-48.4,39.4-87.8,87.8-87.8c48.4,0,87.8,39.4,87.8,87.8C617.2,255.4,577.9,294.8,529.5,294.8z"/>
</g>
</svg>
